<svg width="52" height="151" viewBox="0 0 52 151" fill="none" xmlns="http://www.w3.org/2000/svg">
<path d="M47.9334 4.87965C45.8019 4.61691 43.8636 6.1335 43.602 8.26381L40.067 37.0535C39.5159 41.5403 35.89 44.9253 31.4028 45.1989L28.8263 44.8825L33.4752 7.02084C33.7367 4.89053 32.2217 2.95106 30.091 2.68909C27.9599 2.42518 26.0212 3.94295 25.7596 6.07326L21.1107 43.935L18.5319 43.6186C14.2448 42.2668 11.5463 38.1056 12.097 33.6192L15.632 4.8299C15.8936 2.69958 14.3785 0.760114 12.2478 0.498149C10.1175 0.233852 8.17806 1.752 7.91648 3.88231L4.38151 32.6716C3.49728 39.8749 7.17373 46.6284 13.3754 49.8676L0.152761 134.962C0.151207 134.972 0.149652 134.982 0.148097 134.991C-0.388659 138.629 0.542988 142.243 2.77124 145.168C4.9995 148.093 8.23675 149.951 11.8833 150.398L11.954 150.407C12.5172 150.476 13.0792 150.51 13.637 150.51C16.711 150.51 19.666 149.471 22.0999 147.507C24.9757 145.187 26.7441 141.883 27.0796 138.204L34.895 52.5106C41.6967 50.8685 46.8987 45.2047 47.7829 38.0011L51.3179 9.21139C51.5791 7.08108 50.0641 5.14161 47.9334 4.87965ZM19.3388 137.498C19.1957 139.064 18.4433 140.47 17.2193 141.458C15.9954 142.445 14.4633 142.886 12.9043 142.692L12.8336 142.684C11.2804 142.493 9.90259 141.703 8.95462 140.458C8.0086 139.216 7.61176 137.683 7.83642 136.139L20.9506 51.7476L24.0176 52.1243C24.0192 52.1243 24.0203 52.1246 24.0219 52.125C24.023 52.125 24.0242 52.125 24.0254 52.125L27.0901 52.5013L19.3388 137.498Z" fill="#FE043C"/>
</svg>
