<svg width="43" height="152" viewBox="0 0 43 152" fill="none" xmlns="http://www.w3.org/2000/svg">
<path d="M42.9004 136.711L30.2943 34.0449C29.417 26.8995 27.1732 20.0997 23.6247 13.8351C21.4465 9.98921 18.8005 6.41304 15.7603 3.20572L15.421 2.84775C12.8309 0.114998 8.95656 -0.613371 5.54947 0.992233C2.14315 2.59745 0.238655 6.05002 0.697676 9.78749L16.6771 139.931C16.7285 140.349 16.7988 140.759 16.8874 141.163C18.2151 147.212 23.6177 151.533 29.7793 151.532C30.3137 151.532 30.8551 151.5 31.3985 151.433C35.691 150.906 39.2539 148.363 41.2544 144.871C41.4651 144.503 41.6582 144.126 41.8332 143.738C42.0081 143.351 42.1647 142.954 42.3023 142.549C42.9214 140.728 43.15 138.744 42.9004 136.711ZM8.4136 8.8399C8.39455 8.68405 8.34364 8.26856 8.86407 8.02331C9.00671 7.95607 9.13186 7.93003 9.24069 7.93003C9.52869 7.93003 9.70166 8.1127 9.77939 8.1951L10.1187 8.55307C12.7259 11.3033 14.9942 14.3692 16.8614 17.6659C19.9035 23.0365 21.8274 28.8662 22.5795 34.9921L29.2981 89.7093L18.5059 91.0343L8.4136 8.8399ZM34.8487 140.308C34.1402 142.102 32.4977 143.466 30.4521 143.717C27.4752 144.085 24.7584 141.959 24.3931 138.983L19.453 98.7498L30.2453 97.4248L35.1853 137.658C35.2996 138.588 35.1702 139.492 34.8487 140.308Z" fill="#FE043C"/>
</svg>
